0
SECTION
2
HEADER
9
$INSUNITS
70
4
9
$ACADVER
1
AC1014
9
$HANDSEED
5
FFFF
0
ENDSEC
0
SECTION
2
TABLES
0
TABLE
2
VPORT
5
8
100
AcDbSymbolTable
0
ENDTAB
0
TABLE
2
LTYPE
5
5
100
AcDbSymbolTable
0
LTYPE
5
14
100
AcDbSymbolTableRecord
100
AcDbLinetypeTableRecord
2
BYBLOCK
70
0
0
LTYPE
5
15
100
AcDbSymbolTableRecord
100
AcDbLinetypeTableRecord
2
BYLAYER
70
0
0
ENDTAB
0
TABLE
2
LAYER
5
2
100
AcDbSymbolTable
70
2
0
LAYER
5
50
100
AcDbSymbolTableRecord
100
AcDbLayerTableRecord
2
0
70
0
6
CONTINUOUS
0
ENDTAB
0
TABLE
2
STYLE
5
3
100
AcDbSymbolTable
70
1
0
STYLE
5
11
100
AcDbSymbolTableRecord
100
AcDbTextStyleTableRecord
2
STANDARD
70
0
0
ENDTAB
0
TABLE
2
VIEW
5
6
100
AcDbSymbolTable
70
0
0
ENDTAB
0
TABLE
2
UCS
5
7
100
AcDbSymbolTable
70
0
0
ENDTAB
0
TABLE
2
APPID
5
9
100
AcDbSymbolTable
70
2
0
APPID
5
12
100
AcDbSymbolTableRecord
100
AcDbRegAppTableRecord
2
ACAD
70
0
0
ENDTAB
0
TABLE
2
DIMSTYLE
5
A
100
AcDbSymbolTable
70
1
0
ENDTAB
0
TABLE
2
BLOCK_RECORD
5
1
100
AcDbSymbolTable
70
1
0
BLOCK_RECORD
5
1F
100
AcDbSymbolTableRecord
100
AcDbBlockTableRecord
2
*MODEL_SPACE
0
BLOCK_RECORD
5
1B
100
AcDbSymbolTableRecord
100
AcDbBlockTableRecord
2
*PAPER_SPACE
0
ENDTAB
0
ENDSEC
0
SECTION
2
BLOCKS
0
BLOCK
5
20
100
AcDbEntity
100
AcDbBlockBegin
2
*MODEL_SPACE
0
ENDBLK
5
21
100
AcDbEntity
100
AcDbBlockEnd
0
BLOCK
5
1C
100
AcDbEntity
100
AcDbBlockBegin
2
*PAPER_SPACE
0
ENDBLK
5
1D
100
AcDbEntity
100
AcDbBlockEnd
0
ENDSEC
0
SECTION
2
ENTITIES
0
LINE
5
100
100
AcDbEntity
8
0
100
AcDbLine
10
32.525000928662479
20
108.35227519068802
30
0
11
101.44297448942631
21
120.61249216584244
31
0
0
LINE
5
101
100
AcDbEntity
8
0
100
AcDbLine
10
0
20
64
30
0
11
-32.525000928662479
21
108.35227519068802
31
0
0
SPLINE
5
102
100
AcDbEntity
8
0
100
AcDbSpline
70
4
71
5
72
12
73
6
74
0
42
0.000000001
43
0.0000000001
44
0.0000000001
40
0.36768672888771509
40
0.36768672888771509
40
0.36768672888771509
40
0.36768672888771509
40
0.36768672888771509
40
0.36768672888771509
40
0.38745448476076078
40
0.38745448476076078
40
0.38745448476076078
40
0.38745448476076078
40
0.38745448476076078
40
0.38745448476076078
41
1
41
1
41
1
41
1
41
1
41
1
10
65.11051274227826
20
4.6316015887196551
30
0
10
66.104086373605895
20
4.8376860055344721
30
0
10
67.089141099018434
20
5.0505822843440207
30
0
10
68.065126506613524
20
5.2703795631295431
30
0
10
69.031545474624011
20
5.4971665072969209
30
0
10
69.987940479317174
20
5.7310350683528064
30
0
0
SPLINE
5
103
100
AcDbEntity
8
0
100
AcDbSpline
70
4
71
5
72
13
73
7
74
0
42
0.000000001
43
0.0000000001
44
0.0000000001
40
0.73122480534231005
40
0.73122480534231005
40
0.73122480534231005
40
0.73122480534231005
40
0.73122480534231005
40
0.73122480534231005
40
0.73333333333333306
40
0.75202665629946575
40
0.75202665629946575
40
0.75202665629946575
40
0.75202665629946575
40
0.75202665629946575
40
0.75202665629946575
41
1
41
1
41
1
41
1
41
1
41
1
41
1
10
-115.20857136276072
20
54.320703226148687
30
0
10
-115.2215343158271
20
54.419788302080079
30
0
10
-115.34825910778252
20
55.398227661834419
30
0
10
-115.46350990566332
20
56.38557084641846
30
0
10
-115.56720928260972
20
57.381315828874229
30
0
10
-115.65926343460529
20
58.384935672792409
30
0
10
-115.73250564758341
20
59.292790976027504
30
0
0
SPLINE
5
104
100
AcDbEntity
8
0
100
AcDbSpline
70
4
71
5
72
12
73
6
74
0
42
0.000000001
43
0.0000000001
44
0.0000000001
40
0.36768672889247961
40
0.36768672889247961
40
0.36768672889247961
40
0.36768672889247961
40
0.36768672889247961
40
0.36768672889247961
40
0.38745448476076078
40
0.38745448476076078
40
0.38745448476076078
40
0.38745448476076078
40
0.38745448476076078
40
0.38745448476076078
41
1
41
1
41
1
41
1
41
1
41
1
10
-65.110512743475624
20
4.6316015889680111
30
0
10
-66.10408637455555
20
4.8376860057397248
30
0
10
-67.089141099724131
20
5.0505822845029531
30
0
10
-68.065126507079384
20
5.270379563238869
30
0
10
-69.031545474854511
20
5.4971665073532927
30
0
10
-69.987940479317189
20
5.73103506835281
30
0
0
ARC
5
105
100
AcDbEntity
8
0
100
AcDbCircle
10
-117.01734712964169
20
56.643751968278693
30
0
40
2.9441849809823459
210
0
220
-0
230
1
100
AcDbArc
50
64.125606651415382
51
307.90509309513305
0
ARC
5
106
100
AcDbEntity
8
0
100
AcDbCircle
10
-67.771578431367317
20
4.194896724030297
30
0
40
2.6966612209342107
210
0
220
0
230
1
100
AcDbArc
50
-214.725442258897
51
9.3196812155558213
0
LINE
5
107
100
AcDbEntity
8
0
100
AcDbLine
10
-32.525000928662479
20
108.35227519068802
30
0
11
-101.44297448942631
21
120.61249216584244
31
0
0
LWPOLYLINE
5
108
100
AcDbEntity
8
0
100
AcDbPolyline
90
2
70
1
43
0.0
10
115.73250564581329
20
59.292790956983048
10
115.20857136355103
20
54.320703232189643
42
1.7999612021517717
0
ARC
5
109
100
AcDbEntity
8
0
100
AcDbCircle
10
67.771578431367317
20
4.1948967240302926
30
0
40
2.6966612209342058
210
0
220
0
230
1
100
AcDbArc
50
-189.31968121555587
51
34.725442258897203
0
LINE
5
110
100
AcDbEntity
8
0
100
AcDbLine
10
0
20
64
30
0
11
32.525000928662479
21
108.35227519068802
31
0
0
ARC
5
111
100
AcDbEntity
8
0
100
AcDbCircle
10
-113.11409465689104
20
57.75880054119925
30
0
40
12.234182362496934
210
0
220
0
230
1
100
AcDbArc
50
103.97508973601056
51
267.63879716419257
0
SPLINE
5
112
100
AcDbEntity
8
0
100
AcDbSpline
70
4
71
5
72
15
73
9
74
0
42
0.000000001
43
0.0000000001
44
0.0000000001
40
0.79357034741786003
40
0.79357034741786003
40
0.79357034741786003
40
0.79357034741786003
40
0.79357034741786003
40
0.79357034741786003
40
0.80000000000000004
40
0.8666666666666667
40
0.93333333333333324
40
1
40
1
40
1
40
1
40
1
40
1
41
1
41
1
41
1
41
1
41
1
41
1
41
1
41
1
41
1
10
-116.06864995479879
20
69.63086106456403
30
0
10
-116.06394750960584
20
69.957192936159927
30
0
10
-115.99689275741595
20
73.671445430504491
30
0
10
-115.57208964979009
20
80.86257186353069
30
0
10
-114.07160737731704
20
91.597877089096599
30
0
10
-111.16567044399368
20
102.10656186483732
30
0
10
-106.8898705295672
20
111.65390461816145
30
0
10
-103.37014140355222
20
117.6823720676903
30
0
10
-101.44297448942631
20
120.61249216584244
30
0
0
ARC
5
113
100
AcDbEntity
8
0
100
AcDbCircle
10
113.11409465689104
20
57.75880054119925
30
0
40
12.23418084258765
210
0
220
0
230
1
100
AcDbArc
50
-87.638797164192752
51
76.024908392776496
0
SPLINE
5
114
100
AcDbEntity
8
0
100
AcDbSpline
70
4
71
5
72
15
73
9
74
0
42
0.000000001
43
0.0000000001
44
0.0000000001
40
0.79357034125516557
40
0.79357034125516557
40
0.79357034125516557
40
0.79357034125516557
40
0.79357034125516557
40
0.79357034125516557
40
0.80000000000000004
40
0.8666666666666667
40
0.93333333333333324
40
1
40
1
40
1
40
1
40
1
40
1
41
1
41
1
41
1
41
1
41
1
41
1
41
1
41
1
41
1
10
116.06864997733479
20
69.630859500650942
30
0
10
116.06394753221919
20
69.957191683576895
30
0
10
115.99689281360958
20
73.671444479250184
30
0
10
115.57208973938006
20
80.86257122255293
30
0
10
114.07160746407008
20
91.597876775373209
30
0
10
111.16567044399368
20
102.10656186483732
30
0
10
106.8898705295672
20
111.65390461816145
30
0
10
103.37014140355222
20
117.6823720676903
30
0
10
101.44297448942631
20
120.61249216584244
30
0
0
ARC
5
115
100
AcDbEntity
8
0
100
AcDbCircle
10
-66.718358018116945
20
8.463343672260411
30
0
40
13.149575014245162
210
0
220
0
230
1
100
AcDbArc
50
179.32688976390335
51
334.62984096452703
0
SPLINE
5
116
100
AcDbEntity
8
0
100
AcDbSpline
70
4
71
5
72
16
73
10
74
0
42
0.000000001
43
0.0000000001
44
0.0000000001
40
0.43042925716535141
40
0.43042925716535141
40
0.43042925716535141
40
0.43042925716535141
40
0.43042925716535141
40
0.43042925716535141
40
0.46666666666666662
40
0.53333333333333333
40
0.59999999999999998
40
0.66666666666666663
40
0.6923721858849311
40
0.6923721858849311
40
0.6923721858849311
40
0.6923721858849311
40
0.6923721858849311
40
0.6923721858849311
41
1
41
1
41
1
41
1
41
1
41
1
41
1
41
1
41
1
41
1
10
-79.867024266119429
20
8.6178211766834565
30
0
10
-81.439277370961491
20
9.1645674667416284
30
0
10
-85.784539212225113
20
10.791148528111314
30
0
10
-92.360518301476446
20
13.827050192795777
30
0
10
-100.05248984360952
20
18.939015692427194
30
0
10
-106.30353247448943
20
26.173503071140498
30
0
10
-110.23927947618037
20
34.108693582340223
30
0
10
-112.35067145509151
20
40.483902132140386
30
0
10
-113.35562412728451
20
44.421709444761333
30
0
10
-113.61813189550041
20
45.535007048537778
30
0
0
SPLINE
5
117
100
AcDbEntity
8
0
100
AcDbSpline
70
4
71
5
72
16
73
10
74
0
42
0.000000001
43
0.0000000001
44
0.0000000001
40
0
40
0
40
0
40
0
40
0
40
0
40
0.066666666666666693
40
0.1333333333333333
40
0.20000000000000001
40
0.26666666666666661
40
0.32797818938634782
40
0.32797818938634782
40
0.32797818938634782
40
0.32797818938634782
40
0.32797818938634782
40
0.32797818938634782
41
1
41
1
41
1
41
1
41
1
41
1
41
1
41
1
41
1
41
1
10
0
20
0
30
0
10
-0.287322841542692
20
0
30
0
10
-0.92189404240070105
20
0.0074075512715919998
30
0
10
-2.0124404758753518
20
0.045063157925577003
30
0
10
-6.4989412672671705
20
-0.0033410302428709998
30
0
10
-20.595570917597598
20
-0.06683526872439155
30
0
10
-34.159630422909125
20
0.53881226168505214
30
0
10
-44.724341754330453
20
1.4838010217872419
30
0
10
-51.590364500945391
20
2.3528563913611893
30
0
10
-54.836946826688816
20
2.8292163081101256
30
0
0
ARC
5
118
100
AcDbEntity
8
0
100
AcDbCircle
10
66.718358018116945
20
8.4633436722604127
30
0
40
13.149575014245162
210
0
220
0
230
1
100
AcDbArc
50
-154.62984096452712
51
0.67311023609772869
0
SPLINE
5
119
100
AcDbEntity
8
0
100
AcDbSpline
70
4
71
5
72
16
73
10
74
0
42
0.000000001
43
0.0000000001
44
0.0000000001
40
0
40
0
40
0
40
0
40
0
40
0
40
0.066666666666666693
40
0.1333333333333333
40
0.20000000000000001
40
0.26666666666666661
40
0.32797818938634771
40
0.32797818938634771
40
0.32797818938634771
40
0.32797818938634771
40
0.32797818938634771
40
0.32797818938634771
41
1
41
1
41
1
41
1
41
1
41
1
41
1
41
1
41
1
41
1
10
0
20
0
30
0
10
0.287322841542692
20
0
30
0
10
0.92189404240070105
20
0.0074075512715919998
30
0
10
2.0124404758753518
20
0.045063157925577003
30
0
10
6.4989412672671705
20
-0.0033410302428709998
30
0
10
20.595570917597591
20
-0.066835268724391522
30
0
10
34.159630422909132
20
0.5388122616850517
30
0
10
44.724341754330432
20
1.4838010217872413
30
0
10
51.59036450094537
20
2.3528563913611893
30
0
10
54.836946826688795
20
2.8292163081101256
30
0
0
SPLINE
5
120
100
AcDbEntity
8
0
100
AcDbSpline
70
4
71
5
72
16
73
10
74
0
42
0.000000001
43
0.0000000001
44
0.0000000001
40
0.4304292571653543
40
0.4304292571653543
40
0.4304292571653543
40
0.4304292571653543
40
0.4304292571653543
40
0.4304292571653543
40
0.46666666666666662
40
0.53333333333333333
40
0.59999999999999998
40
0.66666666666666663
40
0.69237218588493121
40
0.69237218588493121
40
0.69237218588493121
40
0.69237218588493121
40
0.69237218588493121
40
0.69237218588493121
41
1
41
1
41
1
41
1
41
1
41
1
41
1
41
1
41
1
41
1
10
79.867024266120012
20
8.617821176683675
30
0
10
81.439277370961918
20
9.1645674667418113
30
0
10
85.78453921222544
20
10.791148528111478
30
0
10
92.360518301476617
20
13.827050192795905
30
0
10
100.05248984360964
20
18.939015692427269
30
0
10
106.30353247448946
20
26.173503071140498
30
0
10
110.23927947618043
20
34.108693582340223
30
0
10
112.35067145509154
20
40.483902132140372
30
0
10
113.35562412728451
20
44.421709444761326
30
0
10
113.61813189550041
20
45.535007048537764
30
0
0
ENDSEC
0
SECTION
2
OBJECTS
0
DICTIONARY
5
C
100
AcDbDictionary
3
ACAD_GROUP
350
D
3
ACAD_MLINESTYLE
350
17
0
DICTIONARY
5
D
100
AcDbDictionary
0
DICTIONARY
5
1A
330
C
100
AcDbDictionary
0
DICTIONARY
5
17
100
AcDbDictionary
0
ENDSEC
0
EOF
